<svg width="700" height="500"
	xmlns="http://www.w3.org/2000/svg" >

    <path d="M 200,200 Q 70,110 200,370 M 200,200 Q 320,110 200,370 " fill="red" stroke="red" />
    <path d="M 200,200 Q 70,110 200,370 M 200,200 Q 320,110 200,370 " fill="red" stroke="red" transform="rotate(-45,200,250)"/>
    <path d="M 200,200 Q 70,110 200,370 M 200,200 Q 320,110 200,370 " fill="red" stroke="red" transform="scale(1, 1.3)"/>
    <path d="M 200,200 Q 70,110 200,370 M 200,200 Q 320,110 200,370 " fill="red" stroke="red" transform="translate(0, 50) rotate(60,250,250)"/>

    <polygon points="500,150 400,250 500,350 600,250" stroke="black" fill="black" />
    <polygon points="500,150 400,250 500,350 600,250" stroke="black" fill="black" transform="rotate(-180, 500, 200)"/>
    <polygon points="500,150 400,250 500,350 600,250" stroke="black" fill="black" transform="scale(1, 1.3)"/>
    <polygon points="500,150 400,250 500,350 600,250" stroke="black" fill="black" transform="translate(0, )"/>

</svg>