<svg width="500" height="500"
	xmlns="http://www.w3.org/2000/svg" >

	<rect x="0" y="0" width="500" height="500" fill="none" stroke="rgb(128,128,128)"  />
	<polygon points="250,150 160,340 160,360 200,450 300,450 340,360 340,340" stroke="silver" fill="silver" />
	<rect x="295" y="440" width="100" height="16" stroke="silver" fill="silver" />
	<ellipse cx="390" cy="448" rx="15" ry="8" stroke="silver" fill="silver" />
	<line x1="200" y1="325" x2="200" y2="450" stroke="rgb(186,186,186)" stroke-width="5" />
	<line x1="250" y1="325" x2="250" y2="450" stroke="rgb(186,186,186)" stroke-width="5" />
	<line x1="300" y1="325" x2="300" y2="450" stroke="rgb(186,186,186)" stroke-width="5" />
	<ellipse cx="220" cy="450" rx="30" ry="20" stroke="silver" fill="rgb(248,248,248)" /> 
	<ellipse cx="280" cy="450" rx="30" ry="20" stroke="silver" fill="rgb(248,248,248)" /> 
	<polygon points="165,55 180,130 225,85" stroke="silver" stroke-width="10" fill="rgb(248,248,248)" /> 
	<polygon points="335,55 320,130 275,85" stroke="silver" stroke-width="10" fill="rgb(248,248,248)" /> 
	<polygon points="250,150 210,210 250,300 290,210" stroke="silver" fill="rgb(248,248,248)" />
	<circle cx="250" cy="150" r="75" stroke="silver" fill="silver" />
	<ellipse cx="220" cy="145" rx="20" ry="13" fill="green" stroke="rgb(248,248,248)" stroke-width="2" /> 
	<ellipse cx="220" cy="145" rx="7" ry="11" fill="black" stroke="green" /> 
	<ellipse cx="280" cy="145" rx="20" ry="13" fill="green" stroke="rgb(248,248,248)" stroke-width="2" /> 
	<ellipse cx="280" cy="145" rx="7" ry="11" fill="black" stroke="green" /> 
	<polygon points="250,180 240,170 260,170" stroke="rgb(224,122,80)" fill="rgb(224,122,80)" />
	<polyline points="235,190 250,180 265,190" stroke-width="3" stroke="rgb(224,122,80)" fill="none" />

</svg>
